{
    "asset" : {
        "generator" : "Khronos glTF Blender I/O v1.0.5",
        "version" : "2.0"
    },
    "scene" : 0,
    "scenes" : [
        {
            "name" : "Scene",
            "nodes" : [
                0,
                1,
                2
            ]
        }
    ],
    "nodes" : [
        {
            "mesh" : 0,
            "name" : "edge",
            "scale" : [
                0.5,
                0.5,
                0.5
            ],
            "translation" : [
                6,
                0,
                0
            ]
        },
        {
            "mesh" : 1,
            "name" : "lava",
            "scale" : [
                0.5,
                0.5,
                0.5
            ],
            "translation" : [
                -6,
                0,
                0
            ]
        },
        {
            "mesh" : 2,
            "name" : "corner",
            "scale" : [
                0.5,
                0.5,
                0.5
            ]
        }
    ],
    "materials" : [
        {
            "doubleSided" : true,
            "name" : "Material.001",
            "normalTexture" : {
                "index" : 0,
                "texCoord" : 0
            },
            "pbrMetallicRoughness" : {
                "baseColorTexture" : {
                    "index" : 1,
                    "texCoord" : 0
                },
                "metallicFactor" : 0,
                "roughnessFactor" : 0.5
            }
        }
    ],
    "meshes" : [
        {
            "name" : "Plane",
            "primitives" : [
                {
                    "attributes" : {
                        "POSITION" : 0,
                        "NORMAL" : 1,
                        "TEXCOORD_0" : 2
                    },
                    "indices" : 3,
                    "material" : 0
                }
            ]
        },
        {
            "name" : "Plane.002",
            "primitives" : [
                {
                    "attributes" : {
                        "POSITION" : 4,
                        "NORMAL" : 5,
                        "TEXCOORD_0" : 6
                    },
                    "indices" : 7,
                    "material" : 0
                }
            ]
        },
        {
            "name" : "Plane.003",
            "primitives" : [
                {
                    "attributes" : {
                        "POSITION" : 8,
                        "NORMAL" : 9,
                        "TEXCOORD_0" : 10
                    },
                    "indices" : 11,
                    "material" : 0
                }
            ]
        }
    ],
    "textures" : [
        {
            "source" : 0
        },
        {
            "sampler" : 0,
            "source" : 1
        }
    ],
    "images" : [
        {
            "mimeType" : "image/png",
            "name" : "atlas_n",
            "uri" : "atlas_n.png"
        },
        {
            "mimeType" : "image/png",
            "name" : "atlas",
            "uri" : "atlas.png"
        }
    ],
    "accessors" : [
        {
            "bufferView" : 0,
            "componentType" : 5126,
            "count" : 115,
            "max" : [
                4,
                4.166666507720947,
                4
            ],
            "min" : [
                -4,
                0,
                -4
            ],
            "type" : "VEC3"
        },
        {
            "bufferView" : 1,
            "componentType" : 5126,
            "count" : 115,
            "type" : "VEC3"
        },
        {
            "bufferView" : 2,
            "componentType" : 5126,
            "count" : 115,
            "type" : "VEC2"
        },
        {
            "bufferView" : 3,
            "componentType" : 5123,
            "count" : 177,
            "type" : "SCALAR"
        },
        {
            "bufferView" : 4,
            "componentType" : 5126,
            "count" : 4,
            "max" : [
                4,
                0,
                4
            ],
            "min" : [
                -4,
                0,
                -4
            ],
            "type" : "VEC3"
        },
        {
            "bufferView" : 5,
            "componentType" : 5126,
            "count" : 4,
            "type" : "VEC3"
        },
        {
            "bufferView" : 6,
            "componentType" : 5126,
            "count" : 4,
            "type" : "VEC2"
        },
        {
            "bufferView" : 7,
            "componentType" : 5123,
            "count" : 6,
            "type" : "SCALAR"
        },
        {
            "bufferView" : 8,
            "componentType" : 5126,
            "count" : 200,
            "max" : [
                4,
                4.166666507720947,
                4
            ],
            "min" : [
                -4.020833492279053,
                0,
                -4.000000953674316
            ],
            "type" : "VEC3"
        },
        {
            "bufferView" : 9,
            "componentType" : 5126,
            "count" : 200,
            "type" : "VEC3"
        },
        {
            "bufferView" : 10,
            "componentType" : 5126,
            "count" : 200,
            "type" : "VEC2"
        },
        {
            "bufferView" : 11,
            "componentType" : 5123,
            "count" : 303,
            "type" : "SCALAR"
        }
    ],
    "bufferViews" : [
        {
            "buffer" : 0,
            "byteLength" : 1380,
            "byteOffset" : 0
        },
        {
            "buffer" : 0,
            "byteLength" : 1380,
            "byteOffset" : 1380
        },
        {
            "buffer" : 0,
            "byteLength" : 920,
            "byteOffset" : 2760
        },
        {
            "buffer" : 0,
            "byteLength" : 354,
            "byteOffset" : 3680
        },
        {
            "buffer" : 0,
            "byteLength" : 48,
            "byteOffset" : 4036
        },
        {
            "buffer" : 0,
            "byteLength" : 48,
            "byteOffset" : 4084
        },
        {
            "buffer" : 0,
            "byteLength" : 32,
            "byteOffset" : 4132
        },
        {
            "buffer" : 0,
            "byteLength" : 12,
            "byteOffset" : 4164
        },
        {
            "buffer" : 0,
            "byteLength" : 2400,
            "byteOffset" : 4176
        },
        {
            "buffer" : 0,
            "byteLength" : 2400,
            "byteOffset" : 6576
        },
        {
            "buffer" : 0,
            "byteLength" : 1600,
            "byteOffset" : 8976
        },
        {
            "buffer" : 0,
            "byteLength" : 606,
            "byteOffset" : 10576
        }
    ],
    "samplers" : [
        {
            "magFilter" : 9728,
            "minFilter" : 9984
        }
    ],
    "buffers" : [
        {
            "byteLength" : 11184,
            "uri" : "LavaTiles.bin"
        }
    ]
}
